<svg width="220" height="56" viewBox="0 0 220 56" fill="none" xmlns="http://www.w3.org/2000/svg" role="img" aria-labelledby="title desc">
  <title id="title">PrintQ</title>
  <desc id="desc">PrintQ printer logo</desc>
  <rect x="1" y="1" width="54" height="54" rx="14" fill="#F8FAFC" stroke="#CBD5E1" stroke-width="2"/>
  <path d="M17 23.5V18C17 15.7909 18.7909 14 21 14H35C37.2091 14 39 15.7909 39 18V23.5" stroke="#0F172A" stroke-width="3" stroke-linecap="round"/>
  <path d="M16 24H40C43.3137 24 46 26.6863 46 30V39C46 40.6569 44.6569 42 43 42H39.5V36.5C39.5 34.567 37.933 33 36 33H20C18.067 33 16.5 34.567 16.5 36.5V42H13C11.3431 42 10 40.6569 10 39V30C10 26.6863 12.6863 24 16 24Z" fill="#0F172A"/>
  <rect x="20" y="35" width="16" height="9" rx="2" fill="#FFFFFF"/>
  <path d="M24 39.5H32" stroke="#64748B" stroke-width="2" stroke-linecap="round"/>
  <circle cx="39" cy="30" r="2" fill="#22C55E"/>
  <path d="M69 39V16H81.0588C85.5294 16 88.3529 18.7538 88.3529 22.7059C88.3529 26.6941 85.4706 29.4118 80.9647 29.4118H75V39H69ZM75 24.7529H80.0588C81.4471 24.7529 82.2118 23.8941 82.2118 22.7059C82.2118 21.5176 81.4471 20.6588 80.0588 20.6588H75V24.7529Z" fill="#0F172A"/>
  <path d="M91.3346 39V22.1176H96.8052V25.0118H96.9934C97.6405 22.9765 99.2875 21.8824 101.37 21.8824C101.876 21.8824 102.429 21.9412 102.84 22.0471V27.2353C102.323 27.0824 101.476 26.9765 100.829 26.9765C98.5816 26.9765 97.1463 28.4118 97.1463 30.6824V39H91.3346Z" fill="#0F172A"/>
  <path d="M105.164 39V22.1176H110.976V39H105.164ZM108.058 19.9647C106.411 19.9647 105.07 18.7294 105.07 17.2118C105.07 15.7059 106.411 14.4706 108.058 14.4706C109.717 14.4706 111.047 15.7059 111.047 17.2118C111.047 18.7294 109.717 19.9647 108.058 19.9647Z" fill="#0F172A"/>
  <path d="M120.43 29.4235V39H114.618V22.1176H120.148V25.2H120.336C121.124 23.1529 123.007 21.8941 125.513 21.8941C129.089 21.8941 131.383 24.3529 131.383 28.3294V39H125.571V29.4824C125.571 27.3765 124.466 26.1176 123.019 26.1176C121.501 26.1176 120.43 27.4353 120.43 29.4235Z" fill="#0F172A"/>
  <path d="M144.052 22.1176V26.3529H140.899V33.4353C140.899 34.6706 141.534 35.0235 142.428 35.0235C142.887 35.0235 143.405 34.9176 143.711 34.8588L144.558 39.0118C144.017 39.1765 142.97 39.4353 141.523 39.4941C137.417 39.6706 135.087 37.7412 135.087 34.2353V26.3529H132.746V22.1176H135.087V18.0706H140.899V22.1176H144.052Z" fill="#0F172A"/>
  <path d="M169.858 27.5C169.858 34.9353 164.952 39.3294 158.964 39.3294C152.929 39.3294 148.07 34.8765 148.07 27.5C148.07 20.0647 152.976 15.6706 158.964 15.6706C164.999 15.6706 169.858 20.1235 169.858 27.5ZM163.729 27.5C163.729 23.1588 161.788 20.8471 158.964 20.8471C156.152 20.8471 154.199 23.1588 154.199 27.5C154.199 31.8412 156.152 34.1529 158.964 34.1529C161.788 34.1529 163.729 31.8412 163.729 27.5Z" fill="#0F172A"/>
  <path d="M167.523 34.4706L172.076 39.2941H165.958L161.546 34.4706H167.523Z" fill="#22C55E"/>
</svg>
